<svg xmlns="http://www.w3.org/2000/svg" viewBox="0 0 32 32">
  <circle cx="16" cy="16" r="16" fill="#f7931a"/>
  <path fill="white" d="M22.5 14.2c.3-2-1.2-3.1-3.3-3.8l.7-2.7-1.6-.4-.7 2.7-1.3-.3.7-2.7-1.6-.4-.7 2.7-1-.3-2.2-.6-.4 1.7s1.2.3 1.1.3c.6.2.7.6.7.9l-1.7 6.8c-.1.2-.3.5-.8.4 0 0-1.1-.3-1.1-.3l-.8 1.8 2.1.5 1.1.3-.7 2.7 1.6.4.7-2.7 1.3.3-.7 2.7 1.6.4.7-2.7c2.8.5 4.9.3 5.8-2.2.7-2-.03-3.1-1.5-3.8.9-.2 1.5-.8 1.8-1.9zm-3.2 4.5c-.5 2-3.9 1-5 .7l.9-3.5c1.1.3 4.7.8 4.1 2.8zm.5-4.5c-.5 1.8-3.3 1-4.2.7l.8-3.2c.9.2 4 .7 3.4 2.5z"/>
</svg>
